PathFileType	4	(X/Y/Z)	45_1_34_p1_0-241.trc
DataRate	CameraRate	NumFrames	NumMarkers	Units	OrigDataRate	OrigDataStartFrame	OrigNumFrames
59.0	59.0	7	27	m	59.0	181	242
Frame#	Time	RHip			RKnee			RAnkle			RBigToe			RSmallToe			RHeel			LHip			LKnee			LAnkle			LBigToe			LSmallToe			LHeel			Neck			Head			Nose			RShoulder			RElbow			RWrist			RThumb			RIndex			RPinky			LShoulder			LElbow			LWrist			LThumb			LIndex			LPinky			
		X1	Y1	Z1	X2	Y2	Z2	X3	Y3	Z3	X4	Y4	Z4	X5	Y5	Z5	X6	Y6	Z6	X7	Y7	Z7	X8	Y8	Z8	X9	Y9	Z9	X10	Y10	Z10	X11	Y11	Z11	X12	Y12	Z12	X13	Y13	Z13	X14	Y14	Z14	X15	Y15	Z15	X16	Y16	Z16	X17	Y17	Z17	X18	Y18	Z18	X19	Y19	Z19	X20	Y20	Z20	X21	Y21	Z21	X22	Y22	Z22	X23	Y23	Z23	X24	Y24	Z24	X25	Y25	Z25	X26	Y26	Z26	X27	Y27	Z27	
181	3.0677966101694913	0.5480170838029977	0.4583951123733956	0.9121677378555959	0.5666095163813178	0.621384310290331	1.3044388858558587	0.5870434313900691	0.7809482965944072	1.6671996984153168	0.5828762878128482	0.6608819226062302	1.7558924232500002	0.6482549323803988	0.6954590575091701	1.7497685060636172	0.5710824854932086	0.8987206466037309	1.7207091139229949	0.34134832607435966	0.45237910375825313	0.9283014897874262	0.38034170364207787	0.6564395344598971	1.3415649649524115	0.4063087431965477	0.8199129810988761	1.7055944785112949	0.4304220713548425	0.6668465861500691	1.7662884477461351	0.37931261436063396	0.7180635257945268	1.764349895470535	0.427879432996922	0.8768721875220202	1.7422256544820578	0.40682104834247385	0.28499370847395006	0.402151684965774	0.3937279548870897	0.18750034414481906	0.1897327884589433	0.4015147242719845	0.14234649134059307	0.3289089052555979	0.5559697957437448	0.313679942185906	0.4817353891273206	0.6371088187712366	0.4180865229333388	0.7021808459475871	0.6713513319216572	0.37996036105909364	0.9333186809017832	0.6307423946953054	0.3401285880256364	1.0548153778520588	0.6542302694971828	0.35342707770018883	1.0850567674762945	0.6852586759598638	0.428879475854698	1.0692110443935894	0.2529584300652233	0.2806166542619388	0.5059962416917618	0.20329457382060065	0.4222592539013587	0.7268842978144516	0.18476212835214456	0.40944246557199915	0.9486710975054895	0.208144584778008	0.4358295479720606	1.0488390735901225	0.18266172024322072	0.4366583628650955	1.0823391098985022	0.17480481881989765	0.4494940580690204	1.067979624109318
182	3.0847457627118646	0.5479810712995624	0.45928877085325814	0.9160974723731118	0.5665653112022091	0.6215484387566028	1.304381226951702	0.5913313526547954	0.7633875809649102	1.6629984196973353	0.5834124869435136	0.6621373386921688	1.7557734268407414	0.6481086104401532	0.6969421475920096	1.7459707777541167	0.5710487993670733	0.898595798596824	1.7206726113574182	0.344188613688161	0.46731099209962296	0.9349842322337322	0.3803027586050433	0.6567270144562146	1.3415762021866764	0.40563321018168935	0.8216512936708628	1.7101270272123439	0.43044967085761926	0.6667730817863806	1.7663050160478357	0.3788369132685114	0.7194685560724675	1.768272326652293	0.4278932185379838	0.8768297429512537	1.7422488288709452	0.4068756830697357	0.2850526391785621	0.4020355062438591	0.39370549924823295	0.18748026137648885	0.18974486392964146	0.40162428522089255	0.14223422118606716	0.3289833888108938	0.5599980079411019	0.3152439242918889	0.4809557045738879	0.6372544510015122	0.4180221873515182	0.7020811064298054	0.6715997251502341	0.3786604467226449	0.9295420475973941	0.634398086582492	0.3225731325794056	1.0470869615240934	0.659786190200175	0.355465664535285	1.0900407235937375	0.6898362509158213	0.41369477359455376	1.068290762458365	0.2547726033546377	0.2931862385302765	0.5033996488840897	0.20349318187715743	0.42200546623451196	0.7272291544471884	0.1849455986001869	0.4093513891980079	0.9487434069006662	0.21431596530085797	0.42179392310029595	1.0517758090499614	0.1837380897043144	0.43830550623358944	1.0863220264863636	0.17550676162626802	0.4513437419419865	1.072103641098227
183	3.1016949152542375	0.548090787954073	0.45849780019105885	0.9121312198292021	0.5666133248123816	0.6214933629884231	1.304347010784469	0.5913974150615058	0.7633172637924895	1.6629885088805836	0.5831043083931507	0.6603526982391433	1.7556924180477058	0.6478025835964577	0.6946599176740405	1.7455457392052607	0.5711779014425782	0.8986265114676865	1.720602028327361	0.3446202783262982	0.466082885477475	0.9315300366254667	0.3808396810422937	0.655038006358231	1.3376354200347362	0.4063385315678122	0.8198150311179873	1.705604694044682	0.4304497924558572	0.6666513886471689	1.766272122511607	0.3795193848699934	0.7178839913065552	1.7643795924242451	0.4280415321791526	0.8768688930509386	1.742188472387653	0.40692598826838905	0.28513767792644085	0.402037025435076	0.3936837506873274	0.18769531374457415	0.18973947159928622	0.4038498014245166	0.15332903489064312	0.325894404443123	0.5631015844347258	0.32562584121982546	0.47472532259723305	0.6446169329261571	0.4154408621616761	0.701551289367564	0.6749211678237719	0.3660939595105999	0.9330605885418206	0.6419379991006993	0.33765076652799914	1.054317201764044	0.6707061598523217	0.35490753254122737	1.085941367081542	0.6896244321842765	0.4158911144181738	1.0722428599100395	0.25482784295439537	0.2932133826124528	0.5033587529400654	0.20355664173981447	0.4217382880045867	0.7268932330485609	0.18484018694490856	0.4089720637160897	0.9485740841815392	0.21924973425701183	0.40742364754937704	1.047289748290432	0.1833977663607595	0.4377367522038309	1.083239614791499	0.17111794539515887	0.4460905738093722	1.0677392678402637
184	3.1186440677966103	0.5469919245855748	0.4861591294473661	0.9114050213400953	0.5630254062591853	0.6079477903090174	1.303665940389711	0.5913075539695258	0.7631984517784699	1.6629358450347442	0.5830956098185384	0.6613891743629425	1.755780675741474	0.6480551493448612	0.6956196845952275	1.7455974461642865	0.5710868973646624	0.8985560918290662	1.7205710914896037	0.33936535077153	0.48066191866933894	0.9319020800410963	0.38078999129353297	0.6550865738868569	1.3377374663443011	0.4063458033588237	0.819726235508541	1.7055057108146536	0.43042817017580054	0.6668404894886028	1.7662120642200265	0.37944060623760545	0.7184401724640196	1.7644893548917018	0.42929594883904415	0.8802033547668635	1.7462576018051212	0.40939856368477595	0.296695217536476	0.39919420640886244	0.39371247577799495	0.18767298594267023	0.18969887258099496	0.4016676824901146	0.1423336556890237	0.32900636102951303	0.5630917492023039	0.325641138040871	0.4747608001263687	0.6446579855669312	0.4153413048163231	0.7015496863627716	0.6783677861703608	0.36492178892884086	0.9293489222689609	0.6417815545126685	0.33871275222628494	1.0588113891935116	0.6717090089242764	0.35738503866250737	1.0891500460492323	0.6895331807102661	0.41652130662502657	1.0728362717696551	0.2547970252609786	0.29315969947371917	0.5034334966223508	0.2036732233534212	0.4217521494179464	0.7273770989076748	0.18459904942720834	0.4100878306793055	0.9524004399694664	0.2253850433572729	0.3938599597395444	1.0502969875390231	0.18350213048061256	0.43693552721510415	1.0833379472481854	0.17196280705441086	0.4478341382594741	1.0721987452721053
185	3.135593220338983	0.5481895245123122	0.4583678583066775	0.9120818312641051	0.5629247126473829	0.608010164822155	1.303640729535526	0.5913258881048277	0.7632028155503141	1.6629506265403784	0.5872816318465367	0.6640903260381178	1.7560051796208835	0.6480678881444267	0.6958487051354076	1.7457111280744553	0.5710498215991475	0.8984349287481422	1.7205617596048521	0.3447375680486573	0.4663115738644248	0.931549041128784	0.3808081151162381	0.6551053132351572	1.3376461929922916	0.40632302534751097	0.8197661975796534	1.7055251667060922	0.43040665504807213	0.6669322749157814	1.7663087499213959	0.3793877803374633	0.718021049734463	1.764387812274307	0.42915943200745227	0.8799549446684186	1.7463573381104582	0.40943938915384354	0.2966613491588808	0.39920600800156614	0.3936994261233478	0.1877087178004708	0.18965190094065862	0.40186350223731815	0.14275656603831346	0.33198503650862315	0.5631945973683273	0.32564547941102656	0.4746553962130994	0.6447148274410219	0.41508604046635467	0.7015896274555765	0.6792222225226109	0.36709127221920884	0.932485941238791	0.6422141705614605	0.3401073719330484	1.0584470846967096	0.6708943402066946	0.3562572025547213	1.0860790197076515	0.6896665483306592	0.4161128149043949	1.072510959159675	0.25489931335976873	0.29333653230578094	0.5033421900030827	0.20935947974389596	0.4081578938803102	0.7280860607319589	0.18952651000093595	0.41486510860486003	0.9557908696694204	0.22528857447527506	0.3934637054917578	1.0508560499614044	0.18456328980827494	0.4375136686067292	1.089927045694374	0.17646901753759242	0.4507079567599999	1.0762744551916186
186	3.152542372881356	0.5481691656165201	0.45817227891755835	0.912022408527717	0.567878957580872	0.624421148299856	1.3085385943679106	0.5912985075808015	0.7632524767780394	1.6629727445222025	0.5868103462083437	0.6755447380869879	1.7585772566253772	0.648202433825898	0.6966549374964579	1.7458544349505984	0.5672116838782597	0.8830336730406942	1.7179583835698282	0.34417406748831075	0.46591543030422683	0.9275845187190314	0.3796787734724549	0.6565057924584677	1.3375062777336078	0.4063089277512013	0.819751698625864	1.7054930526861505	0.4328704893542923	0.6816770626023035	1.7693466621115377	0.3793512449334711	0.7186852984419462	1.7645612998080114	0.42909435794461126	0.8800661774617408	1.746394360950912	0.4140020441650563	0.2843434122161199	0.4012456334187025	0.39369275103895685	0.1877750187815535	0.18962710719395312	0.4018124348696469	0.14283203413695625	0.3320006826257868	0.5632969473137553	0.32553921532854857	0.4746616650063782	0.6486425826686073	0.4007310381352834	0.7025098784342306	0.6740739297249765	0.3631654317287656	0.9299299254108249	0.6379582610786991	0.32659266221547817	1.0558049243195067	0.6671873368797144	0.34483989254389996	1.0861621004891728	0.6896986711067398	0.41620261588053153	1.072670445283515	0.2549356642767348	0.2934831216799292	0.5033153051215458	0.21558112562538012	0.39727178279576897	0.7320364566923355	0.19055226920174934	0.4172672464195753	0.9594369028934887	0.23169093983457872	0.38341144902254326	1.0546294692965636	0.18429347094476517	0.43733930554670825	1.0872788228758945	0.18014914198588938	0.45300247144024836	1.0769763616027164
187	3.169491525423729	0.5518094226639954	0.459032913618473	0.9075631621961611	0.5635399133338982	0.6108412980262639	1.3042440508763125	0.5913292181882338	0.7631432631244577	1.6629288492022691	0.5873937142668781	0.6645877356231856	1.7560888367927283	0.6482551921585951	0.6960974240792669	1.7456617188061787	0.5673262881707763	0.8827824241921889	1.7178658552394936	0.3483209687838949	0.467504064757036	0.9268279198725382	0.3795997731545689	0.656546588738801	1.3375873213266751	0.4063223968753141	0.8195897492975754	1.7054704083877896	0.43291521930572785	0.6815411057913282	1.7693570880697629	0.3793351387341768	0.7180682945931545	1.7643736321351593	0.4278852310023883	0.8765228496817142	1.742092420847954	0.41405094428966216	0.2842596113789141	0.40129157504609836	0.39368919328092644	0.18784730854920587	0.18963863396687322	0.40183430656259994	0.1427934194016024	0.33202122442568816	0.5636076606241486	0.3262876715892274	0.4784405693391003	0.648767513849016	0.4004658999550366	0.7025762612464049	0.674008929845363	0.36302858410972144	0.9298178495140034	0.6340996964652781	0.3242717193312786	1.0591924585292434	0.6626402425462047	0.34017219566423973	1.0864726127663042	0.6896863819478423	0.41562000446004255	1.072281557123517	0.25500691849941454	0.29348839333341453	0.5033284839790019	0.21559680133681597	0.39723857238638144	0.7322910662345508	0.19085818118651912	0.4168643134495948	0.9596065091650454	0.23209303002647935	0.3836562007596397	1.0588992519436815	0.19243831287825489	0.4281847389796166	1.1002759759773149	0.18842729467438607	0.4596560357918047	1.0908808960123353
